<?xml version="1.0" encoding="UTF-8"?>
<svg xmlns="http://www.w3.org/2000/svg" xmlns:xlink="http://www.w3.org/1999/xlink" width="22pt" height="22pt" viewBox="0 0 22 22" version="1.1">
 <defs>
  <style id="current-color-scheme" type="text/css">
   .ColorScheme-Text { color:#d3dae3; } .ColorScheme-Highlight { color:#48b9c7; }
  </style>
 </defs>
<g id="surface1">
<path style=" stroke:none;fill-rule:nonzero;fill:#888888;fill-opacity:1;" d="M 6.878906 4.863281 C 6.199219 4.863281 5.644531 4.308594 5.644531 3.625 L 5.644531 1.234375 C 5.644531 0.554688 6.199219 0 6.878906 0 C 7.5625 0 8.117188 0.554688 8.117188 1.234375 L 8.117188 3.625 C 8.117188 4.308594 7.5625 4.863281 6.878906 4.863281 Z M 6.878906 4.863281 "/>
<path style=" stroke:none;fill-rule:nonzero;fill:#888888;fill-opacity:1;" d="M 11 4.863281 C 10.316406 4.863281 9.765625 4.308594 9.765625 3.625 L 9.765625 1.234375 C 9.765625 0.554688 10.316406 0 11 0 C 11.683594 0 12.234375 0.554688 12.234375 1.234375 L 12.234375 3.625 C 12.234375 4.308594 11.683594 4.863281 11 4.863281 Z M 11 4.863281 "/>
<path style=" stroke:none;fill-rule:nonzero;fill:#888888;fill-opacity:1;" d="M 11 4.863281 C 10.316406 4.863281 9.765625 4.308594 9.765625 3.625 L 9.765625 1.234375 C 9.765625 0.554688 10.316406 0 11 0 C 11 0 11 4.613281 11 4.863281 Z M 11 4.863281 "/>
<path style=" stroke:none;fill-rule:nonzero;fill:#888888;fill-opacity:1;" d="M 15.121094 4.863281 C 14.4375 4.863281 13.882812 4.308594 13.882812 3.625 L 13.882812 1.234375 C 13.882812 0.554688 14.4375 0 15.121094 0 C 15.800781 0 16.355469 0.554688 16.355469 1.234375 L 16.355469 3.625 C 16.355469 4.308594 15.800781 4.863281 15.121094 4.863281 Z M 15.121094 4.863281 "/>
<path style=" stroke:none;fill-rule:nonzero;fill:#888888;fill-opacity:1;" d="M 6.878906 22 C 6.199219 22 5.644531 21.445312 5.644531 20.765625 L 5.644531 18.375 C 5.644531 17.691406 6.199219 17.136719 6.878906 17.136719 C 7.5625 17.136719 8.117188 17.691406 8.117188 18.375 L 8.117188 20.765625 C 8.117188 21.445312 7.5625 22 6.878906 22 Z M 6.878906 22 "/>
<path style=" stroke:none;fill-rule:nonzero;fill:#888888;fill-opacity:1;" d="M 11 22 C 10.316406 22 9.765625 21.445312 9.765625 20.765625 L 9.765625 18.375 C 9.765625 17.691406 10.316406 17.136719 11 17.136719 C 11.683594 17.136719 12.234375 17.691406 12.234375 18.375 L 12.234375 20.765625 C 12.234375 21.445312 11.683594 22 11 22 Z M 11 22 "/>
<path style=" stroke:none;fill-rule:nonzero;fill:#888888;fill-opacity:1;" d="M 11 22 C 10.316406 22 9.765625 21.445312 9.765625 20.765625 L 9.765625 18.375 C 9.765625 17.691406 10.316406 17.136719 11 17.136719 Z M 11 22 "/>
<path style=" stroke:none;fill-rule:nonzero;fill:#888888;fill-opacity:1;" d="M 15.121094 22 C 14.4375 22 13.882812 21.445312 13.882812 20.765625 L 13.882812 18.375 C 13.882812 17.691406 14.4375 17.136719 15.121094 17.136719 C 15.800781 17.136719 16.355469 17.691406 16.355469 18.375 L 16.355469 20.765625 C 16.355469 21.445312 15.800781 22 15.121094 22 Z M 15.121094 22 "/>
<path style=" stroke:none;fill-rule:nonzero;fill:#888888;fill-opacity:1;" d="M 3.75 8.074219 L 1.359375 8.074219 C 0.675781 8.074219 0.125 7.523438 0.125 6.839844 C 0.125 6.15625 0.675781 5.601562 1.359375 5.601562 L 3.75 5.601562 C 4.429688 5.601562 4.984375 6.15625 4.984375 6.839844 C 4.984375 7.523438 4.429688 8.074219 3.75 8.074219 Z M 3.75 8.074219 "/>
<path style=" stroke:none;fill-rule:nonzero;fill:#888888;fill-opacity:1;" d="M 3.75 12.195312 L 1.359375 12.195312 C 0.675781 12.195312 0.125 11.640625 0.125 10.957031 C 0.125 10.277344 0.675781 9.722656 1.359375 9.722656 L 3.75 9.722656 C 4.429688 9.722656 4.984375 10.277344 4.984375 10.957031 C 4.984375 11.640625 4.429688 12.195312 3.75 12.195312 Z M 3.75 12.195312 "/>
<path style=" stroke:none;fill-rule:nonzero;fill:#888888;fill-opacity:1;" d="M 3.832031 16.316406 L 1.441406 16.316406 C 0.757812 16.316406 0.207031 15.761719 0.207031 15.078125 C 0.207031 14.394531 0.757812 13.84375 1.441406 13.84375 L 3.832031 13.84375 C 4.515625 13.84375 5.066406 14.394531 5.066406 15.078125 C 5.066406 15.761719 4.515625 16.316406 3.832031 16.316406 Z M 3.832031 16.316406 "/>
<path style=" stroke:none;fill-rule:nonzero;fill:#888888;fill-opacity:1;" d="M 20.558594 8.074219 L 18.167969 8.074219 C 17.484375 8.074219 16.933594 7.523438 16.933594 6.839844 C 16.933594 6.15625 17.484375 5.601562 18.167969 5.601562 L 20.558594 5.601562 C 21.242188 5.601562 21.792969 6.15625 21.792969 6.839844 C 21.792969 7.523438 21.242188 8.074219 20.558594 8.074219 Z M 20.558594 8.074219 "/>
<path style=" stroke:none;fill-rule:nonzero;fill:#888888;fill-opacity:1;" d="M 20.558594 12.195312 L 18.167969 12.195312 C 17.484375 12.195312 16.933594 11.640625 16.933594 10.957031 C 16.933594 10.277344 17.484375 9.722656 18.167969 9.722656 L 20.558594 9.722656 C 21.242188 9.722656 21.792969 10.277344 21.792969 10.957031 C 21.792969 11.640625 21.242188 12.195312 20.558594 12.195312 Z M 20.558594 12.195312 "/>
<path style=" stroke:none;fill-rule:nonzero;fill:#888888;fill-opacity:1;" d="M 20.640625 16.316406 L 18.25 16.316406 C 17.570312 16.316406 17.015625 15.761719 17.015625 15.078125 C 17.015625 14.394531 17.570312 13.84375 18.25 13.84375 L 20.640625 13.84375 C 21.324219 13.84375 21.875 14.394531 21.875 15.078125 C 21.875 15.761719 21.324219 16.316406 20.640625 16.316406 Z M 20.640625 16.316406 "/>
<path style=" stroke:none;fill-rule:nonzero;fill:currentColor;fill-opacity:1;" class="ColorScheme-Text" d="M 4.433594 2.53125 L 17.566406 2.53125 C 18.597656 2.53125 19.429688 3.367188 19.429688 4.398438 L 19.429688 17.53125 C 19.429688 18.558594 18.597656 19.394531 17.566406 19.394531 L 4.433594 19.394531 C 3.402344 19.394531 2.570312 18.558594 2.570312 17.53125 L 2.570312 4.398438 C 2.570312 3.367188 3.402344 2.53125 4.433594 2.53125 Z M 4.433594 2.53125 "/>
<path style=" stroke:none;fill-rule:nonzero;fill:currentColor;fill-opacity:1;" class="ColorScheme-Text" d="M 4.433594 2.53125 L 11 2.53125 L 11 19.394531 L 4.433594 19.394531 C 3.402344 19.394531 2.570312 18.558594 2.570312 17.53125 L 2.570312 4.398438 C 2.570312 3.367188 3.402344 2.53125 4.433594 2.53125 Z M 4.433594 2.53125 "/>
<path style=" stroke:none;fill-rule:nonzero;fill:#888888;fill-opacity:1;" d="M 8.777344 7.417969 L 13.222656 7.417969 C 13.949219 7.417969 14.539062 8.007812 14.539062 8.738281 L 14.539062 13.179688 C 14.539062 13.910156 13.949219 14.5 13.222656 14.5 L 8.777344 14.5 C 8.050781 14.5 7.460938 13.910156 7.460938 13.179688 L 7.460938 8.738281 C 7.460938 8.007812 8.050781 7.417969 8.777344 7.417969 Z M 8.777344 7.417969 "/>
<path style=" stroke:none;fill-rule:nonzero;fill:#888888;fill-opacity:1;" d="M 8.777344 7.417969 L 11 7.417969 L 11 14.5 L 8.777344 14.5 C 8.050781 14.5 7.460938 13.910156 7.460938 13.179688 L 7.460938 8.738281 C 7.460938 8.007812 8.050781 7.417969 8.777344 7.417969 Z M 8.777344 7.417969 "/>
</g>
</svg>
